/* XPM */
static char *glass_green[] = {
/* columns rows colors chars-per-pixel */
"64 64 9 1 ",
"  c #232323",
". c #393939",
"X c #154C2E",
"o c #175C31",
"O c #1A6B34",
"+ c #1F6E42",
"@ c #5A5A5A",
"# c #218547",
"$ c #269B4C",
/* pixels */
"................................................................",
"................................................................",
"................................................................",
"...                                                          ...",
"... OOOO  .XXXXXXXX.. OOOOOOOOOOO...OOOO... OOOOO .XXXXXXXXX@...",
"... O$$$$ ..++++++@. O$$$$$$$$$$.....@$@.. O$$$$O .@X+++++++@...",
"... O$$$$$ ..++++@. O$$$$$$$$$$@..  ..... O$$$$$$O .X+++++++@...",
"... O$$$$$ ..@@@... $$$$$$$$$@..  oo ... O$$$$$$$$ .@++++++@@...",
"... O$$$$$$........ $$$$$$$$@.. oo##o ..O$$$$$$$$$ ..X++++@.@...",
"... O$$$$$$...    ..@$$$$$$@.. o##### ..O$$$$$$$$$$..@+++@. @...",
"... O$$$$$$.. oooo  ..@$$$@... o###### .@$$$$$$$$$$...@@@. O@...",
"... O$$$$$@. o#####o ..@@@   ..@###### ..$$$$$$$$$@.. ....O$@...",
"... O$$$$@..o#######o ...  OO ..#######..$$$$$$$@... oo  ...@...",
"... .@@@@.. o########o.. O$$$O .@######...@@@@@@... o##oo  .@...",
"...   .... o##########. O$$$$$O .@@@@@..    ...... o#####oo @...",
"... XX  .. o#########@. $$$$$$$ .....  XXXXX .... o########o@...",
"... X++X . o#########. O$$$$$$$$ ... X++++++X... o##########@...",
"... X+++X ..########@. $$$$$$$$$ .. X++++++++.. o###########@...",
"... X++++ ..@#######. O$$$$$$$$$$.. +++++++++.. o###########@...",
"... X+++++ ..@#####@..O$$$$$$$$$$.. +++++++++...o###########@...",
"... X++++++...@@@@@...$$$$$$$$$$@  .++++++++@...@###########@...",
"... X+++++...      ...@$$$$$$$$@. o @++++++@.....##########@@...",
"... X++++... OOOOOO ...@$$$$$$@. o# .++++@..   ..#######@@..@...",
"... X+++@.. O$$$$$$O ...@@$$$@. o## .@@@@.. OOO..#####@@..  @...",
"... X++@.. O$$$$$$$$O..  ..@@.. o## ....  OO$$$ ..##@.... OO@...",
"... X+@.. O$$$$$$$$$$. XX  .....@## ..  OO$$$$$ .....  ..O$$@...",
"... X@.. O$$$$$$$$$$$. X+XX...  .@@...O$$$$$$$$$...  XX .@$$@...",
"... .... O$$$$$$$$$$$. X+++.. OOO   ...$$$$$$$$$.. XX++X .@$@...",
"...    ...$$$$$$$$$$@. X++@. O$$$OOO  ..@$$$$$@... X++++ ..@@...",
"... ooo ..@$$$$$$$@....@+@. O$$$$$$$OO ..@@@@    . X+++++ ..@...",
"... o##o ..@$$$$$@..  ..@. O$$$$$$$$$$O ...  oooo .X++++++..@...",
"... o###o...@@$$@.. XX ... O$$$$$$$$$$$ ..ooo###o ..+++++@..@...",
"... o####.....@@.. X++X ..O$$$$$$$$$$$$$. oo#####o .+++@... @...",
"... o####........ X++++X .O$$$$$$$$$$$$$. o####### ..@@..  O@...",
"... o###@..    .. X+++++X.@$$$$$$$$$$$$$. o######## ...  OO$@...",
"... o###.. OOOO  .@++++++..@$$$$$$$$$$$$. o######## .. OO$$$@...",
"... o##@. O$$$$$O .@+++++...@$$$$$$$$$@@. o#########.. O$$$$@...",
"... o#@. O$$$$$$$$O.@++@......@$$$$@@.....o#########.. O$$$$@...",
"... @@..O$$$$$$$$$$..@@.     ........   ...#######@... O$$$$@...",
"...   ..O$$$$$$$$$$...  ooooo ...    XXX  ..@###@......O$$$$@...",
"... OO .@$$$$$$$$$@.. o######o ..XXX+++++X ...@@..   ...$$$$@...",
"... O$O .@$$$$$$$$.. o########o .X+++++++++ ....  OOO ..@$$$@...",
"... O$$O..@@@@@@@.. o########## .+++++++++++... O$$$OO ..@$$@...",
"... O$$..        .. ########### .+++++++++++.. O$$$$$$O ..@@@...",
"... O$$. XXXXXXXX .o########### .+++++++++++.. O$$$$$$$$....@...",
"... O$.. X++++++X .o########### .++++++++++@. O$$$$$$$$$..  @...",
"... O$. X++++++++ .@###########..@++++++++@.. O$$$$$$$$@. XX@...",
"... O.. +++++++++...@#########@....@@@@@@@... O$$$$$$$$@.X++@...",
"... ....@+++++++@....@#######@..  ...       ...$$$$$$$@. X++@...",
"...    ..@++++++..   .@#####@.  OO . ooooooo ..@$$$$$@. X+++@...",
"... ooo  ..@+++@. OOO  @@##@. O$$$O. oo#####o ..@$$@@.. X+++@...",
"... o###o  .@@@. O$$$$O .@@. O$$$$$  o######## ..@@.....X+++@...",
"... o#####oo .. O$$$$$$O .. O$$$$$$O. ######### ....   ..+++@...",
"... o#######o.. $$$$$$$$O. O$$$$$$$$..##########... OOO .@++@...",
"... o########. O$$$$$$$$$. O$$$$$$$$@.@########@.. O$$$O .@+@...",
"... o########. O$$$$$$$$$.. $$$$$$$$@...@@@@@@@.. O$$$$$O .@@...",
"... o########. $$$$$$$$$....$$$$$$$@....     ... O$$$$$$$$ .@...",
"... o########. $$$$$$$$@....@$$$$$@  .. XXXXX . O$$$$$$$$$$ @...",
"... o########. $$$$$$$@.   ..@$$@@ oo.. X++++X. O$$$$$$$$$$$@...",
"... o########. $$$$$$@. XXX ..... o##. X++++++. O$$$$$$$$$$$@...",
"....@@@@@@@@@@@@@@@@@@@@@@@@@@@@@@@@@@@@@@@@@@@@@@@@@@@@@@@@@...",
"................................................................",
"................................................................",
"................................................................"
};
