/* XPM */
static char *sapling_roofed_oak[] = {
/* columns rows colors chars-per-pixel */
"64 64 11 1 ",
"  c None",
". c #50382E",
"X c #136139",
"o c #5D4135",
"O c #744A37",
"+ c #126155",
"@ c #8F573E",
"# c #A7684C",
"$ c #228359",
"% c #43A960",
"& c #7BCE74",
/* pixels */
"                                                                ",
"                                                                ",
"                                                                ",
"                                                                ",
"                               %%%%%  %%%                       ",
"                             %%&&&%%%%%&&%                      ",
"                             %%&&&%%%%&&&%                      ",
"                             %%&&&%%%%&&%%                      ",
"                             %%&&%%$%%%%%$                      ",
"                             $%%%%%$$%%%%$                      ",
"                              $%%%%$$%%%$  %%%                  ",
"                              $$%%$$$$$$$ %%%%%                 ",
"                          %%%  $$$$$$$$$$+%%%%%                 ",
"                 %%%     %%%%% $$$$$$$$$X+%%%%$                 ",
"                %%&&%    %%%%%%X$$$$$$$X++X%%%$                 ",
"                $%&&%%   %%%%++XX$$$$$XX++++%$$                 ",
"                $$%%%$   $$$$$++XXX.XXXX++$$$$                  ",
"                $$$$$$$   $$$$$+XXO.XXX++$$$$$                  ",
"                 %$$$$$    %$$$  O..    %$$$$                   ",
"                   ++$$         O...                            ",
"            %%$$$$$$XXX        ooo.                             ",
"           %%%%%$$$$$XX       Ooo..                             ",
"          %%&&&%%$$$$oOOOO   O#...                              ",
"          %%&&&%$$$$$oX.oO...#@...                              ",
"          %&&&%$$$$$$XX ....O#Oo.                               ",
"          %%%%$$%%$$$XX  ...O#@O.                               ",
"           %%%%&&%$$XXX   ..O##Oo.                              ",
"            %%%&&$$XXXX    ..O#@O.                              ",
"             %%%$$XXXXX    ...o@OOO                             ",
"             $$$$ XXXX      ..o.ooo                 $$%%%       ",
"                   XXX      ..O##@OO               $$%%%%%%%    ",
"                             ..O@#@OO         OOOOo$$$$%%&&&%   ",
"                             ....ooOOO      OOOoo.X$$$$$$%&&&   ",
"                             ..OOOOoo..   OOOo...XX$$$$$$$%&%   ",
"                              ...oOOO... .OOo.. X+X$$$$%%$$$$   ",
"                              ......OOO.......  +++X$$$%%%%$$   ",
"                              ..OOOO.........  ++$++ $$$%&&%$   ",
"              %%%%            ..O###@O......  +$$$$+  $$$&&$    ",
"             $%&&%%           ..OO####O....   $$$$$$% $$$$$     ",
"             $$&&%$           ...OO@##OO...  $$$$%%%$  $$$      ",
"              $$$$$          .....OOOOOO..   $$$%%%%$           ",
"               $$$$          ......OOOOO..   $$$%%%$$           ",
"                 .OO       ....OO....OO...     $$$$             ",
"               %%+ .O      ...OOOOO.......                      ",
"              %%%$  .O    ....O#@OOO.....                       ",
"             &&&%$  ..   .....O##OOOo....                       ",
"            %&&&$$   .O ...O..O@#@OOO....                       ",
"            %&&$$    .....OO..OO##OOO...                        ",
"            $$$$$    .....OOO..O@#OOO...                        ",
"             $$$     .....OOO..OOOOOO..                         ",
"                     ..OO..OOO..OOOOO..                         ",
"                    ..O@OO..OOO..OOOO..                         ",
"                    ..##OOo..OOO..OO..                          ",
"                   ..O##@OO...OOO.....                          ",
"                   ..O###OOOO...OO....                          ",
"                   ..O###@OOOOO.......                          ",
"                  ..OO@##@OOOO##O.....                          ",
"                  ..OOO###OOOOO##O....                          ",
"                  ..OOO@##OO.OOO##O....                         ",
"                  ..OOOO##OO..OOO@@O...                         ",
"                  ..OO.OO#OO...OOO@Oo...                        ",
"                  ..OO..OOOOO...OOOOO...                        ",
"                 ...oo...OOOO....OOOO....                       ",
"                 ...oO....OOO.....OOO....                       "
};
